<?xml version="1.0" encoding="UTF-8"?>
<svg width="22px" height="22px" viewBox="0 0 22 22" version="1.1" xmlns="http://www.w3.org/2000/svg" xmlns:xlink="http://www.w3.org/1999/xlink">
    <!-- Generator: Sketch 53.2 (72643) - https://sketchapp.com -->
    <title>icon-edit</title>
    <desc>Created with Sketch.</desc>
    <g id="Page-1" stroke="none" stroke-width="1" fill="none" fill-rule="evenodd">
        <g id="Profile" transform="translate(-323.000000, -55.000000)" fill="#AA1F24" fill-rule="nonzero">
            <g id="Nav-Bar">
                <g id="icon-edit" transform="translate(323.000000, 55.000000)">
                    <path d="M19.4737811,0.885591278 C18.2910216,-0.295197093 16.3756899,-0.295197093 15.1929304,0.885591278 L14.1213446,1.9631506 L2.71439181,13.3651262 L2.69014951,13.3895603 C2.68427831,13.395432 2.68427831,13.4016826 2.67802835,13.4016826 C2.6659072,13.419866 2.64772547,13.4378601 2.63579369,13.4560435 C2.63579369,13.4621047 2.62954374,13.4621047 2.62954374,13.4681658 C2.61742258,13.4863493 2.61155139,13.4984716 2.59924085,13.516655 C2.59336966,13.5227162 2.59336966,13.528588 2.58730908,13.5348385 C2.5812485,13.553022 2.57518792,13.5651443 2.56893797,13.5833277 C2.56893797,13.5891995 2.56306677,13.5891995 2.56306677,13.59545 L0.0322076949,21.2067428 C-0.042034373,21.423429 0.0144047743,21.6634128 0.177472161,21.8242228 C0.292054981,21.9373011 0.446599694,22.0005644 0.607394364,21.9999962 C0.673113709,21.9988597 0.738264912,21.9886315 0.801143446,21.9696904 L8.40584178,19.4325297 C8.41171297,19.4325297 8.41171297,19.4325297 8.41796293,19.426658 C8.43709162,19.4209757 8.45546273,19.412831 8.47231874,19.4022239 C8.47705356,19.4016557 8.48122018,19.3995722 8.48462928,19.3963522 C8.50262163,19.3842299 8.52686394,19.3719182 8.54504567,19.3597959 C8.56303797,19.347863 8.58140913,19.3296795 8.59959086,19.3175572 C8.60565144,19.3113067 8.61152258,19.3113067 8.61152258,19.3054349 C8.61777259,19.2993737 8.62989374,19.293502 8.63595432,19.2811903 L21.1144929,6.80146589 C22.295169,5.61859404 22.295169,3.70308033 21.1144929,2.52039787 L19.4737811,0.885591278 Z M8.2120927,18.0094846 L3.9980978,13.7952787 L14.5452062,3.24716797 L18.7592011,7.46137392 L8.2120927,18.0094846 Z M3.40454002,14.9154555 L7.08596176,18.5970377 L1.55795795,20.437734 L3.40454002,14.9154555 Z M20.2608985,5.95366213 L19.6190455,6.6016373 L15.4048612,2.38705251 L16.0529641,1.73926679 C16.7618623,1.03086955 17.9109098,1.03086955 18.6199973,1.73926679 L20.2667697,3.38619569 C20.9703648,4.09838115 20.9677133,5.24488609 20.2608985,5.95366213 Z" id="Shape"></path>
                </g>
            </g>
        </g>
    </g>
</svg>