<?xml version="1.0" encoding="UTF-8"?>
<svg width="25px" height="22px" viewBox="0 0 25 22" version="1.1" xmlns="http://www.w3.org/2000/svg" xmlns:xlink="http://www.w3.org/1999/xlink">
    <!-- Generator: Sketch 53.2 (72643) - https://sketchapp.com -->
    <title>icon-add-to-cart</title>
    <desc>Created with Sketch.</desc>
    <g id="Page-1" stroke="none" stroke-width="1" fill="none" fill-rule="evenodd">
        <g id="Product-Details" transform="translate(-294.000000, -375.000000)">
            <g id="Add-to-cart" transform="translate(279.000000, 358.000000)">
                <g id="icon-add-to-cart" transform="translate(15.000000, 17.000000)">
                    <path d="M8.10544602,15.0000325 L21.3380215,15.0000325 C21.6657031,15.0000325 21.9531397,14.77816 22.0418312,14.4558979 L24.9717012,3.95581648 C25.0346436,3.72945174 24.9915376,3.48629027 24.8528737,3.29820641 C24.7140191,3.11070845 24.4981079,2.99996745 24.2677008,2.99996745 L6.41458621,2.99996745 L5.89102049,0.587493626 C5.81663408,0.243942653 5.51908853,0 5.17576673,0 L0.732419821,0 C0.327681601,0 0,0.335543259 0,0.749991863 C0,1.16463581 0.327681601,1.49998373 0.732419821,1.49998373 L4.58792356,1.49998373 L7.23283645,13.6873515 C6.45464039,14.0338321 5.90818656,14.8269876 5.90818656,15.7500244 C5.90818656,16.990636 6.89390156,18 8.10544602,18 L21.3380215,18 C21.7429505,18 22.0704413,17.6646521 22.0704413,17.2500081 C22.0704413,16.8355595 21.7429505,16.5000163 21.3380215,16.5000163 L8.10544602,16.5000163 C7.7020429,16.5000163 7.3730262,16.1638871 7.3730262,15.7500244 C7.3730262,15.3361617 7.7020429,15.0000325 8.10544602,15.0000325 Z" id="Path" fill="#AA1F24"></path>
                    <path d="M7,20 C7,21.1029514 7.89718328,22 9.0000868,22 C10.1028167,22 11,21.1029514 11,20 C11,18.8972222 10.1028167,18 9.0000868,18 C7.89718328,18 7,18.8972222 7,20 Z" id="Path" fill="#AA1F24"></path>
                    <path d="M18,20 C18,21.1029514 18.8972222,22 20,22 C21.1029514,22 22,21.1029514 22,20 C22,18.8972222 21.1029514,18 20,18 C18.8972222,18 18,18.8972222 18,20 Z" id="Path" fill="#AA1F24"></path>
                    <path d="M15.5,8.5 L17.5,8.5 C17.7761424,8.5 18,8.72385763 18,9 C18,9.27614237 17.7761424,9.5 17.5,9.5 L15.5,9.5 L15.5,11.5 C15.5,11.7761424 15.2761424,12 15,12 C14.7238576,12 14.5,11.7761424 14.5,11.5 L14.5,9.5 L12.5,9.5 C12.2238576,9.5 12,9.27614237 12,9 C12,8.72385763 12.2238576,8.5 12.5,8.5 L14.5,8.5 L14.5,6.5 C14.5,6.22385763 14.7238576,6 15,6 C15.2761424,6 15.5,6.22385763 15.5,6.5 L15.5,8.5 Z" id="Combined-Shape" fill="#FFFFFF"></path>
                </g>
            </g>
        </g>
    </g>
</svg>