<?xml version="1.0" encoding="UTF-8"?>
<svg width="25px" height="25px" viewBox="0 0 25 25" version="1.1" xmlns="http://www.w3.org/2000/svg" xmlns:xlink="http://www.w3.org/1999/xlink">
    <!-- Generator: Sketch 53.2 (72643) - https://sketchapp.com -->
    <title>icon-contact</title>
    <desc>Created with Sketch.</desc>
    <g id="Page-1" stroke="none" stroke-width="1" fill="none" fill-rule="evenodd">
        <g id="Profile" transform="translate(-30.000000, -616.000000)" fill="#AA1F24">
            <g id="Contact" transform="translate(0.000000, 599.000000)">
                <g id="icon-contact" transform="translate(30.000000, 17.000000)">
                    <path d="M14.229393,0.0244140625 C13.9596939,0.0244140625 13.7411118,0.242996191 13.7411118,0.512695312 C13.7411118,0.782394434 13.9596939,1.00097656 14.229393,1.00097656 C19.6298599,1.00097656 24.0234375,5.39455415 24.0234375,10.795021 C24.0234375,11.0645294 24.2420196,11.2833023 24.5117188,11.2833023 C24.7814179,11.2833023 25,11.0645294 25,10.795021 C25,4.85610962 20.1683044,0.0244140625 14.229393,0.0244140625 L14.229393,0.0244140625 Z" id="Path"></path>
                    <path d="M14.229393,2.96192168 C13.9596939,2.96192168 13.7411118,3.18069458 13.7411118,3.45039365 C13.7411118,3.71990205 13.9596939,3.9386749 14.229393,3.9386749 C18.0099487,3.9386749 21.0857392,7.01427461 21.0857392,10.795021 C21.0857392,11.0645294 21.3043213,11.2833023 21.5740204,11.2833023 C21.8437195,11.2833023 22.0623017,11.0645294 22.0623017,10.795021 C22.0623017,6.47583008 18.548584,2.96192168 14.229393,2.96192168 L14.229393,2.96192168 Z" id="Path"></path>
                    <path d="M18.1476593,10.795021 C18.1476593,11.0645294 18.3662415,11.2833023 18.6359405,11.2833023 C18.9056396,11.2833023 19.1242218,11.0645294 19.1242218,10.795021 C19.1242218,8.09593203 16.928482,5.90019229 14.229393,5.90019229 C13.9596939,5.90019229 13.7411118,6.11877441 13.7411118,6.38847354 C13.7411118,6.65817261 13.9596939,6.87675479 14.229393,6.87675479 C16.3898468,6.87675479 18.1476593,8.63437651 18.1476593,10.795021 L18.1476593,10.795021 Z" id="Path"></path>
                    <path d="M13.7411118,9.32617188 C13.7411118,9.59568022 13.9596939,9.81445312 14.229393,9.81445312 C14.7701264,9.81445312 15.2099609,10.2542877 15.2099609,10.795021 C15.2099609,11.0645294 15.4285431,11.2833023 15.6982422,11.2833023 C15.9679413,11.2833023 16.1865234,11.0645294 16.1865234,10.795021 C16.1865234,9.71565244 15.3085708,8.83789062 14.229393,8.83789062 C13.9596939,8.83789062 13.7411118,9.05647275 13.7411118,9.32617188 L13.7411118,9.32617188 Z" id="Path"></path>
                    <path d="M9.32540894,15.7655716 C9.32540894,16.0352707 9.10682676,16.2538528 8.83712769,16.2538528 C8.56742861,16.2538528 8.34884644,16.0352707 8.34884644,15.7655716 C8.34884644,15.4958725 8.56742861,15.2770996 8.83712769,15.2770996 C9.10682676,15.2770996 9.32540894,15.4958725 9.32540894,15.7655716 L9.32540894,15.7655716 Z" id="Path"></path>
                    <path d="M17.3360825,16.3030625 C16.7650223,15.7318115 15.8355713,15.7318115 15.2645111,16.3030625 L13.6575699,17.9100037 C13.35392,18.2136536 12.7836228,18.268013 12.412262,18.0290222 C11.8505478,17.6670074 11.302948,17.2697067 10.7851028,16.8479919 C10.5758667,16.6778564 10.2684021,16.7093277 10.0980759,16.9185639 C9.92794038,17.1278 9.95941162,17.4352646 10.1686478,17.6054001 C10.714531,18.0498123 11.2913132,18.4684753 11.8833542,18.8499451 C12.6390457,19.3367004 13.7216568,19.2270279 14.3482208,18.6004639 L15.9551621,16.9935227 C16.1457062,16.8031692 16.4552688,16.80336 16.6456223,16.9935227 L20.4435349,20.7920074 C20.6338882,20.9823608 20.6338882,21.2921143 20.4435349,21.4824677 L19.0221787,22.9038238 C17.8731918,24.0528106 16.1006928,24.3659973 14.6116257,23.6831665 C7.15618135,20.2659607 3.26976777,14.5265579 1.32255557,10.3136062 C0.651550293,8.86249541 0.974273682,7.11364746 2.12593076,5.9621811 L3.524971,4.56333159 C3.71551514,4.37259673 4.02412412,4.37202451 4.21524048,4.56333159 L8.01372529,8.36181641 C8.20407866,8.55216982 8.20407866,8.86173247 8.01372529,9.05208589 L6.40678408,10.6592178 C5.78022002,11.2857818 5.67073823,12.368393 6.1574936,13.1240845 C6.43348691,13.5522842 6.72988892,13.9741897 7.03868867,14.3783569 C7.20252988,14.5925522 7.50904082,14.6335602 7.72323608,14.4697189 C7.93743135,14.3060684 7.97843936,13.9995575 7.81478882,13.7853623 C7.52162935,13.4017944 7.24029541,13.0014419 6.97841646,12.5949859 C6.73923491,12.2238159 6.79378511,11.6533279 7.09743501,11.349678 L8.70437622,9.74273682 C9.27677153,9.1703415 9.2769623,8.24375151 8.70437622,7.67116548 L4.90589141,3.87268066 C4.33330537,3.30009463 3.40690615,3.30009463 2.83412935,3.87268066 L1.43527983,5.27153018 C-0.00457763672,6.71138765 -0.406074512,8.90235898 0.43582915,10.7233047 C3.25374604,16.8195725 7.99083711,21.7227936 14.2045975,24.5710373 C16.0560608,25.4199981 18.2712555,25.0358582 19.7126389,23.5944748 L21.1341858,22.1731186 C21.705246,21.6018677 21.705246,20.6726074 21.1341858,20.1015473 L17.3360825,16.3030625 Z" id="Path"></path>
                </g>
            </g>
        </g>
    </g>
</svg>