<?xml version="1.0" encoding="UTF-8"?>
<svg width="25px" height="25px" viewBox="0 0 25 25" version="1.1" xmlns="http://www.w3.org/2000/svg" xmlns:xlink="http://www.w3.org/1999/xlink">
    <!-- Generator: Sketch 53.2 (72643) - https://sketchapp.com -->
    <title>icon-payment</title>
    <desc>Created with Sketch.</desc>
    <g id="Page-1" stroke="none" stroke-width="1" fill="none" fill-rule="evenodd">
        <g id="Profile" transform="translate(-30.000000, -430.000000)" fill="#AA1F24">
            <g id="Payment" transform="translate(0.000000, 413.000000)">
                <g id="icon-payment" transform="translate(30.000000, 17.000000)">
                    <path d="M11.4908854,16.9232761 C11.6810581,16.7327227 11.6810581,16.4243345 11.4908854,16.2337811 C11.3005224,16.0437987 10.9921342,16.0437987 10.8015808,16.2337811 C10.6115984,16.4243345 10.6115984,16.7327227 10.8015808,16.9232761 C10.9921342,17.1132584 11.3005224,17.1132584 11.4908854,16.9232761 Z" id="Path"></path>
                    <path d="M9.18368514,5.35910088 C9.18368514,8.31410668 11.5877802,10.7183921 14.542786,10.7183921 C17.4977918,10.7183921 19.9018869,8.31410668 19.9018869,5.35910088 C19.9018869,2.40409508 17.4977918,0 14.542786,0 C11.5877802,0 9.18368514,2.40409508 9.18368514,5.35910088 Z M18.9276087,5.35910088 C18.9276087,7.7769021 16.9605872,9.74392359 14.542786,9.74392359 C12.1249848,9.74392359 10.1579633,7.7769021 10.1579633,5.35910088 C10.1579633,2.94149001 12.1249848,0.974468519 14.542786,0.974468519 C16.9605872,0.974468519 18.9276087,2.94149001 18.9276087,5.35910088 Z" id="Shape" fill-rule="nonzero"></path>
                    <path d="M5.63607914,24.8071622 C5.8249193,24.9975253 6.13235565,24.9996193 6.32367052,24.8111598 L8.68569537,22.4841618 C9.0869807,22.0828765 9.20900341,21.4887534 9.03253684,20.9722983 L9.54061589,20.4823038 C9.81416759,20.2180799 10.1743345,20.0724522 10.5550606,20.0724522 L17.031783,20.0724522 C18.1808144,20.0724522 19.2668357,19.6311906 20.0901559,18.8299525 C20.1240405,18.7970197 19.8329754,19.1398635 24.508673,13.5515655 C25.2021656,12.7311008 25.0984177,11.4990711 24.2771915,10.804817 C23.461105,10.1170352 22.2385935,10.2158336 21.5431972,11.0222115 L18.6683343,13.977027 C18.3053119,13.5302449 17.7517361,13.2517437 17.1536154,13.2517437 L11.720844,13.2517437 C10.9477796,12.9283169 10.1275052,12.7646047 9.28115102,12.7646047 C6.93511667,12.7646047 4.88661979,13.8481512 3.7872731,15.8797058 C3.32411979,15.7919484 2.83564815,15.9320556 2.48423791,16.2834658 L0.16656769,18.6079892 C-0.0226532164,18.7977811 -0.0230339181,19.1048367 0.165806238,19.2951998 L5.63607914,24.8071622 Z M9.28096062,13.7388828 C10.0271838,13.7388828 10.7486598,13.8890792 11.4257812,14.1852842 C11.4874589,14.2123157 11.5538956,14.2262122 11.6210938,14.2262122 L17.1536154,14.2262122 C17.6818729,14.2262122 18.1280839,14.6570038 18.1280839,15.2004904 C18.1280839,15.7378853 17.6910103,16.1749589 17.1536154,16.1749589 L13.1786443,16.1749589 C12.9096613,16.1749589 12.6915053,16.393115 12.6915053,16.662098 C12.6915053,16.9312713 12.9096613,17.149237 13.1786443,17.149237 L17.1536154,17.149237 C18.2282149,17.149237 19.102362,16.2750899 19.102362,15.2004904 C19.102362,15.114827 19.0962704,15.029925 19.0852293,14.9457846 C21.8662433,12.0871025 22.2583912,11.6854365 22.2751432,11.6654483 C22.6223654,11.2555967 23.238761,11.2036276 23.648803,11.5493269 C24.0592257,11.8963587 24.1111949,12.5123736 23.7630209,12.9245096 L19.3932368,18.1484527 C18.7551398,18.761041 17.9173519,19.098174 17.031783,19.098174 L10.5550606,19.098174 C9.92039016,19.098174 9.31960434,19.3408869 8.86387519,19.7811967 L8.44983553,20.1807688 L4.63305614,16.3641798 C5.52509747,14.6906981 7.19895984,13.7388828 9.28096062,13.7388828 L9.28096062,13.7388828 Z M3.17373294,16.972009 C3.33439937,16.8113426 3.58110989,16.7824074 3.77699347,16.9034783 C3.86132432,16.9548763 3.6191825,16.7344359 7.99677144,21.1059332 C8.19151287,21.3006747 8.18104288,21.6109664 7.99943655,21.7925728 L5.98577607,23.7763462 L1.19871618,18.9527366 L3.17373294,16.972009 Z" id="Shape" fill-rule="nonzero"></path>
                    <path d="M13.958181,2.43607607 L13.958181,3.0069749 C13.3910895,3.20799829 12.9837125,3.74958119 12.9837125,4.38482271 C12.9837125,5.19062958 13.6393229,5.84643031 14.4453201,5.84643031 C14.7139224,5.84643031 14.9324592,6.06496711 14.9324592,6.3335694 C14.9324592,6.60217164 14.7139224,6.82070848 14.4453201,6.82070848 C14.2372533,6.82070848 14.0124345,6.68992904 13.8127437,6.45216559 C13.6395133,6.24619274 13.3322673,6.21973226 13.1262944,6.39277232 C12.9203216,6.56600268 12.8936708,6.87324864 13.0669012,7.07922149 C13.3273178,7.3889422 13.633612,7.60481389 13.958181,7.71370156 L13.958181,8.28231603 C13.958181,8.55148938 14.1763371,8.76945512 14.4453201,8.76945512 C14.7143031,8.76945512 14.9324592,8.55148938 14.9324592,8.28231603 L14.9324592,7.7114172 C15.4995507,7.51020346 15.9069277,6.96862057 15.9069277,6.3335694 C15.9069277,5.52757217 15.2513173,4.87196179 14.4453201,4.87196179 C14.1767178,4.87196179 13.958181,4.653425 13.958181,4.38482271 C13.958181,4.11622047 14.1767178,3.89749327 14.4453201,3.89749327 C14.6179794,3.89749327 14.8001569,3.98563138 14.9722451,4.15219907 C15.1656539,4.33932597 15.4740421,4.33418616 15.661169,4.14096764 C15.8482959,3.94755877 15.843156,3.63917061 15.6499376,3.45204376 C15.4026559,3.21275736 15.155184,3.07740926 14.9324592,3.00354834 L14.9324592,2.43607607 C14.9324592,2.16690273 14.7143031,1.94874664 14.4453201,1.94874664 C14.1763371,1.94874664 13.958181,2.16690273 13.958181,2.43607607 L13.958181,2.43607607 Z" id="Path"></path>
                </g>
            </g>
        </g>
    </g>
</svg>