<?xml version="1.0" encoding="UTF-8"?>
<svg width="25px" height="25px" viewBox="0 0 25 25" version="1.1" xmlns="http://www.w3.org/2000/svg" xmlns:xlink="http://www.w3.org/1999/xlink">
    <!-- Generator: Sketch 53.2 (72643) - https://sketchapp.com -->
    <title>icon-tnc</title>
    <desc>Created with Sketch.</desc>
    <g id="Page-1" stroke="none" stroke-width="1" fill="none" fill-rule="evenodd">
        <g id="Profile" transform="translate(-30.000000, -554.000000)" fill="#AA1F24">
            <g id="Terms" transform="translate(0.000000, 537.000000)">
                <g id="icon-tnc" transform="translate(30.000000, 17.000000)">
                    <path d="M21.3044261,3.6469358 C18.9526751,1.29518482 15.8258755,0 12.5,0 C9.6155642,0 6.80374514,1.00909533 4.58234436,2.84129377 C4.40374514,2.9885214 4.37840467,3.2526751 4.52568093,3.43122568 C4.67300584,3.6098249 4.93720817,3.63506809 5.11566148,3.48784047 C7.18725681,1.77918288 9.80972763,0.838132296 12.5,0.838132296 C18.9035506,0.838132296 24.1131809,6.04776265 24.1131323,12.4513619 C24.1131323,15.3261187 23.0543288,18.0850195 21.1316634,20.2199416 C20.9768482,20.3919261 20.9906615,20.6569066 21.1626946,20.8117704 C21.2428016,20.8839008 21.3430447,20.9194553 21.4430447,20.9194553 C21.5576362,20.9194553 21.6718385,20.8726654 21.754572,20.7807879 C23.8160992,18.4917802 24.9514105,15.5336089 24.9514105,12.4513132 C24.9513132,9.12548638 23.656177,5.99868677 21.3044261,3.6469358 Z" id="Path"></path>
                    <path d="M20.5582198,21.395428 C20.4092412,21.2182879 20.1449416,21.1953307 19.9677529,21.3443093 C17.8811284,23.0984436 15.2289883,24.0644942 12.4999514,24.0644942 C6.09640078,24.0644942 0.886770428,18.8548638 0.886770428,12.4513132 C0.886770428,9.53633268 1.97174125,6.74863813 3.94187743,4.60189689 C4.09839494,4.4313716 4.08706226,4.16629377 3.91648833,4.00977626 C3.7459144,3.85325875 3.4807393,3.86473735 3.3243677,4.03521401 C1.21191634,6.33701362 0.0485894942,9.32592412 0.0485894942,12.4513619 C0.0485894942,15.777286 1.34377432,18.9040856 3.69552529,21.2558366 C6.0473249,23.6075389 9.17417315,24.9027237 12.5,24.9027237 C15.42607,24.9027237 18.2696984,23.8668774 20.5071012,21.9858949 C20.6842899,21.836965 20.7071498,21.5726167 20.5582198,21.395428 Z" id="Path"></path>
                    <path d="M14.1229572,9.19557393 L10.8770914,9.19557393 C10.6455739,9.19557393 10.4580253,9.38321984 10.4580253,9.61464008 L10.4580253,20.5970817 C10.4580253,20.8285019 10.6456226,21.0161479 10.8770914,21.0161479 L14.1229572,21.0161479 C14.3544747,21.0161479 14.5420233,20.8285019 14.5420233,20.5970331 L14.5420233,9.61464008 C14.5420233,9.38317121 14.3544261,9.19557393 14.1229572,9.19557393 Z M13.7039397,20.1780156 L11.2962062,20.1780156 L11.2962062,10.0337062 L13.7039397,10.0337062 L13.7039397,20.1780156 Z" id="Shape" fill-rule="nonzero"></path>
                    <path d="M12.5,3.82786965 C11.2145428,3.82786965 10.1687743,4.87368677 10.1687743,6.15909533 C10.1687743,7.44455253 11.2145428,8.49032101 12.5,8.49032101 C13.7854572,8.49032101 14.8312257,7.44450389 14.8312257,6.15909533 C14.8312257,4.87363813 13.7854572,3.82786965 12.5,3.82786965 Z M12.5,7.65218872 C11.6767023,7.65218872 11.0069066,6.982393 11.0069066,6.15909533 C11.0069066,5.33579767 11.676751,4.66600195 12.5,4.66600195 C13.3232977,4.66600195 13.9930934,5.33579767 13.9930934,6.15909533 C13.9930934,6.982393 13.3232977,7.65218872 12.5,7.65218872 Z" id="Shape" fill-rule="nonzero"></path>
                </g>
            </g>
        </g>
    </g>
</svg>