<?xml version="1.0" encoding="UTF-8"?>
<svg width="25px" height="25px" viewBox="0 0 25 25" version="1.1" xmlns="http://www.w3.org/2000/svg" xmlns:xlink="http://www.w3.org/1999/xlink">
    <!-- Generator: Sketch 53.2 (72643) - https://sketchapp.com -->
    <title>icon-about</title>
    <desc>Created with Sketch.</desc>
    <g id="Page-1" stroke="none" stroke-width="1" fill="none" fill-rule="evenodd">
        <g id="Profile" transform="translate(-30.000000, -368.000000)" fill="#AA1F24">
            <g id="About" transform="translate(0.000000, 351.000000)">
                <g id="icon-about" transform="translate(30.000000, 17.000000)">
                    <path d="M24.6869076,4.76470848 L23.6885606,4.3819873 C22.2364152,3.82531521 20.9449137,2.89978161 19.9537466,1.70541919 C19.0542575,0.621593662 17.7285172,0 16.3164717,0 C15.0336154,0 13.7898333,0.529828114 12.9039225,1.45365966 L12.4960851,1.87893243 L12.0882476,1.45365966 C11.2023857,0.529828114 9.95855476,0 8.67574729,0 C7.26370177,0 5.93796148,0.621593662 5.03847236,1.70541919 C4.04730529,2.89978161 2.75580381,3.82531521 1.30365834,4.3819873 L0.305311378,4.76470848 C-0.119230294,4.92786345 -0.0957369038,5.5550496 0.342822653,5.68474686 C0.353128485,5.68776194 0.363629689,5.69033935 0.374179735,5.69267361 C0.378770959,5.69369485 0.38331334,5.69486198 0.387953406,5.69573733 C0.397721967,5.69763391 0.407637057,5.69899556 0.41760099,5.70025995 C0.423071384,5.70098941 0.428444093,5.70191338 0.43396333,5.70244832 C0.44319462,5.70332367 0.452572439,5.70361545 0.461950258,5.70395586 C0.468055608,5.70419901 0.474112116,5.70473395 0.48026631,5.70478258 C0.480461681,5.70478258 0.48060821,5.70478258 0.480803581,5.70478258 C1.24094417,5.70478258 2.07933094,6.39771702 3.14073396,7.27496065 C3.61968652,7.67081204 4.16252547,8.11947603 4.76412231,8.5553016 C4.98225429,8.71335037 5.28776604,8.6654008 5.44645632,8.44816884 C5.60519544,8.23098552 5.55703643,7.92685105 5.33890446,7.76880228 C4.76246166,7.35126174 4.25518027,6.9319705 3.76470081,6.52658756 C3.20012682,6.05997896 2.69079403,5.63932607 2.19538145,5.3225477 C3.66134944,5.05697713 5.86425768,4.84475411 7.51895427,5.50408495 C9.82184374,6.4218377 11.579501,6.52294028 12.2420536,6.52294028 C12.2458634,6.52294028 12.2497708,6.52294028 12.2535805,6.52294028 C12.9162797,6.52294028 14.6740346,6.42178907 16.9766799,5.50408495 C18.7831799,4.78416064 21.2431967,5.10312738 22.6841572,5.39627138 C22.2240579,5.70332367 21.7494524,6.09528462 21.2276647,6.52653893 C19.5744334,7.89295567 17.5169302,9.59346319 14.1617713,10.0314771 C13.8942592,10.0663937 13.7059214,10.3105669 13.7409905,10.576867 C13.7732268,10.821721 13.9831531,11 14.224632,11 C14.2457809,11 14.2672229,10.9986383 14.2887626,10.9958178 C17.9237908,10.5212824 20.1940044,8.64492741 21.8516315,7.27491202 C22.9130346,6.39761976 23.7514213,5.70473395 24.5115619,5.70473395 C24.7468866,5.70473395 24.9487539,5.53763992 24.9917844,5.30727776 C25.0346195,5.07701286 24.9065537,4.84883906 24.6869076,4.76470848 Z M16.6136313,4.60121311 C14.7188235,5.35629719 13.2155396,5.51541583 12.4989668,5.54391324 C12.4959874,5.54386461 12.493008,5.54386461 12.4899797,5.54386461 L12.0054591,5.54386461 C12.0027239,5.54386461 12.0000375,5.54386461 11.9973023,5.54391324 C11.2804365,5.51551309 9.7769572,5.35644308 7.88180748,4.60116448 C6.62957561,4.1021194 5.15017585,4.03374507 3.83415528,4.12842844 C4.56171773,3.61766344 5.22158404,3.01163151 5.7914819,2.32492175 C6.5047334,1.46552547 7.55602596,0.972607827 8.67574729,0.972607827 C9.69299642,0.972607827 10.679328,1.39277441 11.3817853,2.12529399 L12.1428539,2.91894198 C12.2350203,3.01503563 12.3626465,3.06940441 12.4960851,3.06940441 C12.6295236,3.06940441 12.7571987,3.01503563 12.8493162,2.91894198 L13.6103848,2.12529399 C14.3129398,1.39277441 15.2992226,0.972607827 16.3164717,0.972607827 C17.436193,0.972607827 18.4874367,1.46552547 19.2006882,2.32492175 C19.7899767,3.03502272 20.4753878,3.65885338 21.2324024,4.18021981 C19.7871927,4.02290049 18.0508309,4.02844436 16.6136313,4.60121311 Z" id="Shape" fill-rule="nonzero"></path>
                    <path d="M12.5052199,10 L12.4928504,10 C12.2196329,10 12,10.22385 12,10.5 C12,10.77615 12.2234922,11 12.4967097,11 L12.5052199,11 C12.7784375,11 13,10.77615 13,10.5 C13,10.22385 12.778487,10 12.5052199,10 Z" id="Path"></path>
                    <path d="M12.0526316,15.4919816 L12.0526316,13.3069097 C12.0526316,12.9014667 11.7923684,12.5525568 11.4210526,12.3993079 L11.4210526,9.33774968 C11.4210526,8.78881855 11.1017895,8.28680842 10.5878421,8.02757856 L8.90363158,7.17804582 C8.40957895,6.92887399 7.82757895,6.94190485 7.34684211,7.2129269 C6.866,7.4838994 6.57894737,7.96069012 6.57894737,8.48821695 L6.57894737,12.3993079 C6.20763158,12.5525568 5.94736842,12.9014667 5.94736842,13.3069097 L5.94736842,15.4919816 C5.41615789,15.5418755 5,15.9649572 5,16.4779173 L5,23.5135902 C5,24.3331966 5.70831579,25 6.57894737,25 L11.4210526,25 C12.2916842,25 13,24.3331966 13,23.5135902 L13,16.4779173 C13,15.9649572 12.5838421,15.5418755 12.0526316,15.4919816 Z M7.63152632,8.4881674 L7.63152632,8.4881674 C7.63157895,8.23468498 7.81057895,8.10645737 7.88752632,8.0630542 C7.96457895,8.01970058 8.16915789,7.93175467 8.40647368,8.05141066 L10.0906842,8.9009434 C10.262,8.98735335 10.3683684,9.15472309 10.3683684,9.33765059 L10.3683684,12.3159699 L7.63152632,12.3159699 L7.63152632,8.4881674 L7.63152632,8.4881674 Z M7,13.3069097 L7.10526316,13.3069097 L10.8947368,13.3069097 L11,13.3069097 L11,15.4869774 L7,15.4869774 L7,13.3069097 Z M11.9473684,23.5135902 C11.9473684,23.7867923 11.7112632,24.0090601 11.4210526,24.0090601 L10.4736842,24.0090601 L10.4736842,20.2434887 C10.4736842,19.9698407 10.238,19.7480188 9.94736842,19.7480188 C9.65673684,19.7480188 9.42105263,19.9698407 9.42105263,20.2434887 L9.42105263,24.0090601 L6.57894737,24.0090601 C6.28873684,24.0090601 6.05263158,23.7867923 6.05263158,23.5135902 L6.05263158,16.4779173 L11.9473684,16.4779173 L11.9473684,23.5135902 Z" id="Shape" fill-rule="nonzero"></path>
                    <path d="M9.85345,18.1465 C9.7605,18.0535 9.6315,18 9.5,18 C9.3685,18 9.2395,18.0535 9.1465,18.1465 C9.0535,18.2395 9,18.3685 9,18.5 C9,18.6315 9.05345,18.7605 9.1465,18.8535 C9.23955,18.9465 9.3685,19 9.5,19 C9.6315,19 9.7605,18.9465 9.85345,18.8535 C9.94645,18.7605 10,18.6315 10,18.5 C10,18.3685 9.9465,18.2395 9.85345,18.1465 Z" id="Path"></path>
                </g>
            </g>
        </g>
    </g>
</svg>