<?xml version="1.0" encoding="UTF-8"?>
<svg width="13px" height="23px" viewBox="0 0 13 23" version="1.1" xmlns="http://www.w3.org/2000/svg" xmlns:xlink="http://www.w3.org/1999/xlink">
    <!-- Generator: Sketch 53.2 (72643) - https://sketchapp.com -->
    <title>icon-product-fill</title>
    <desc>Created with Sketch.</desc>
    <g id="Page-1" stroke="none" stroke-width="1" fill="none" fill-rule="evenodd">
        <g id="Home" transform="translate(-135.000000, -736.000000)" fill="#AA1F24">
            <g id="Tab-Bar" transform="translate(0.000000, 722.000000)">
                <g id="Product" transform="translate(117.000000, 14.000000)">
                    <g id="ico" transform="translate(18.000000, 0.000000)">
                        <g id="icon-product-fill">
                            <path d="M1,7.6026198 L1.34439258,21.100025 C1.35006938,21.3241099 1.51583197,21.5 1.72246752,21.5 L3.27753248,21.5 C3.48416803,21.5 3.64993062,21.3241099 3.65560742,21.0996131 L4,7.60220788 C3.0054245,7.46586213 1.99571086,7.46586213 1,7.6026198 Z" id="Path"></path>
                            <path d="M4,7 L4,5 L1,5 L1,7 C1.996,6.85017668 3.00475,6.85017668 4,7 Z" id="Path"></path>
                            <path d="M1,3.21428571 L1.12255996,3.33985714 C1.20119911,3.42 1.24511991,3.52885714 1.24511991,3.64285714 L1.24511991,4.5 L3.75488009,4.5 L3.75488009,3.64285714 C3.75488009,3.52885714 3.79880089,3.42 3.87744004,3.33985714 L4,3.21428571 L3.87744004,3.08871429 C3.71388734,2.92114286 3.71388734,2.65028571 3.87744004,2.48271429 L4,2.35714286 L3.87744004,2.23157143 C3.79880089,2.15142857 3.75488009,2.04257143 3.75488009,1.92857143 L3.75488009,1.5 L1.24511991,1.5 L1.24511991,1.92857143 C1.24511991,2.04257143 1.20119911,2.15142857 1.12255996,2.23157143 L1,2.35714286 L1.12255996,2.48271429 C1.28611266,2.65028571 1.28611266,2.92114286 1.12255996,3.08871429 L1,3.21428571 Z" id="Path"></path>
                            <path d="M4.30464286,21.1603955 C4.28857143,21.7724746 3.81785714,22.251737 3.23357143,22.251737 L1.76607143,22.251737 C1.18142857,22.251737 0.711071429,21.7724746 0.695,21.1603955 L0.3725,9.00037413 C0.248214286,9.02544094 0.123571429,9.04826296 0,9.07781935 L0,23 L5,23 L5,9.07744522 C4.87642857,9.04788883 4.75178571,9.02506681 4.6275,9 L4.30464286,21.1603955 Z" id="Path"></path>
                            <path d="M11.5,0.183385028 C11.5,0.0395498897 11.2535,-0.0532106301 11.099,0.0335411111 L9.5,0.934482354 L9.5,3 L11.5,3 L11.5,0.183385028 Z" id="Path"></path>
                            <polygon id="Path" points="10 3.5 11 3.5 11 12.5 10 12.5"></polygon>
                            <path d="M8,13 L8,22.6 C8,22.8208 8.18666667,23 8.41666667,23 L12.5833333,23 C12.8133333,23 13,22.8208 13,22.6 L13,13 L8,13 Z M12.1666667,22.2 L11.3333333,22.2 L11.3333333,15.4 L12.1666667,15.4 L12.1666667,22.2 Z M12.1666667,14.6 L11.3333333,14.6 L11.3333333,13.8 L12.1666667,13.8 L12.1666667,14.6 Z" id="Shape" fill-rule="nonzero"></path>
                        </g>
                    </g>
                </g>
            </g>
        </g>
    </g>
</svg>