<?xml version="1.0" encoding="UTF-8"?>
<svg width="25px" height="25px" viewBox="0 0 25 25" version="1.1" xmlns="http://www.w3.org/2000/svg" xmlns:xlink="http://www.w3.org/1999/xlink">
    <!-- Generator: Sketch 53.2 (72643) - https://sketchapp.com -->
    <title>icon-faq</title>
    <desc>Created with Sketch.</desc>
    <g id="Page-1" stroke="none" stroke-width="1" fill="none" fill-rule="evenodd">
        <g id="Profile" transform="translate(-30.000000, -492.000000)" fill="#AA1F24">
            <g id="FAQ" transform="translate(0.000000, 475.000000)">
                <g id="icon-faq" transform="translate(30.000000, 17.000000)">
                    <path d="M21.3388443,3.66115571 C18.9779282,1.30023955 15.8388138,0 12.5,0 C9.4944,0 6.58988955,1.08203887 4.32128906,3.04698945 C4.16622163,3.1812668 4.14943696,3.41587065 4.28371431,3.57074736 C4.41799165,3.72581484 4.65240479,3.74259951 4.80747222,3.60832217 C6.94103242,1.76029204 9.67292783,0.742530811 12.5,0.742530811 C15.6404495,0.742530811 18.5930252,1.96552275 20.8137512,4.18624878 C23.0344772,6.4069748 24.2574692,9.35955049 24.2574692,12.5 C24.2574692,15.6404495 23.0344772,18.5930252 20.8137512,20.8137512 C18.5930252,23.0344772 15.6404495,24.2574692 12.5,24.2574692 C9.35955049,24.2574692 6.4069748,23.0344772 4.18624878,20.8137512 C1.96552275,18.5930252 0.742530811,15.6404495 0.742530811,12.5 C0.742530811,9.57889556 1.82075498,6.77852632 3.77883911,4.61502075 C3.91635894,4.46300508 3.9045334,4.22821045 3.75251768,4.0904999 C3.600502,3.95298003 3.36570742,3.96461484 3.22818755,4.11682129 C1.14650728,6.41708374 0,9.39426421 0,12.5 C0,15.8388138 1.30023955,18.9779282 3.66115571,21.3388443 C6.02207183,23.6997604 9.16118623,25 12.5,25 C15.8388138,25 18.9779282,23.6997604 21.3388443,21.3388443 C23.6997604,18.9779282 25,15.8388138 25,12.5 C25,9.16118623 23.6997604,6.02207183 21.3388443,3.66115571 Z" id="Path"></path>
                    <path d="M12.0279312,16.9494629 C10.8814239,16.9494629 9.94853975,17.8924561 9.94853975,19.0513611 C9.94853975,20.2102661 10.8814239,21.1532593 12.0279312,21.1532593 C12.5907898,21.1532593 13.120842,20.9293365 13.5204315,20.5224991 C13.9076233,20.1282501 14.1298294,19.5920944 14.1298294,19.0513611 C14.1298294,18.4957504 13.9095307,17.9695129 13.5097504,17.5695419 C13.1097793,17.1697617 12.5835419,16.9494629 12.0279312,16.9494629 Z M12.0279312,20.4107285 C11.290741,20.4107285 10.6910706,19.8009491 10.6910706,19.0513611 C10.6910706,18.301773 11.290741,17.6919937 12.0279312,17.6919937 C12.76474,17.6919937 13.3871079,18.3145523 13.3871079,19.0513611 C13.3871079,19.7881699 12.76474,20.4107285 12.0279312,20.4107285 L12.0279312,20.4107285 Z" id="Shape" fill-rule="nonzero"></path>
                    <path d="M15.6057358,11.1509323 C15.7604218,11.2859726 15.9948349,11.2699509 16.1296845,11.1154556 C17.0244217,10.0904465 17.4781799,9.01737212 17.4781799,7.92617798 C17.4781799,6.77547456 16.9612885,5.73234561 16.0228729,4.98905181 C15.0794983,4.24194336 13.7992859,3.84712217 12.3203277,3.84712217 C10.4907989,3.84712217 9.35916899,4.46472168 8.73222354,4.98275757 C7.97405244,5.60913086 7.52124785,6.4491272 7.52124785,7.22961426 C7.52124785,7.73696899 7.72895811,8.18386079 8.10623169,8.48808291 C8.41674805,8.73851777 8.83026123,8.88214111 9.2411041,8.88214111 C9.94892119,8.88214111 10.2592468,8.42456816 10.5085373,8.05683135 C10.8243942,7.59124756 11.1225128,7.15141299 12.2526169,7.15141299 C12.6399994,7.15141299 13.9039993,7.23495483 13.9039993,8.30841064 C13.9039993,9.11865234 13.1549835,9.69371797 12.4940872,10.2010727 C12.3308182,10.3261948 12.1767044,10.4446411 12.0328903,10.5667114 C11.2718582,11.2226486 10.3981018,12.2358322 10.3981018,14.2642975 C10.3981018,15.3909683 10.6714249,16.14151 12.0056152,16.14151 C12.5965118,16.14151 13.0426407,16.0076142 13.331604,15.7436371 C13.5742188,15.5220032 13.7025833,15.2124405 13.7025833,14.8483276 C13.7025833,13.753891 13.7025833,13.2045746 14.8187637,12.3315811 L14.8378372,12.3167038 C14.8870468,12.2783661 14.9438858,12.2339249 15.0064468,12.1833801 C15.1660919,12.0546341 15.1910782,11.8209839 15.0623321,11.6613388 C14.9335861,11.5016937 14.6999359,11.4767075 14.5402908,11.6054535 C14.4809723,11.6533279 14.4273758,11.6950989 14.3810272,11.7313385 L14.3613815,11.7465973 C13.0250931,12.7918243 12.9600525,13.567543 12.9600525,14.8485184 C12.9600525,15.0131226 12.9600525,15.3989792 12.0056152,15.3989792 C11.5394592,15.3989792 11.3975525,15.3015137 11.3260269,15.2164459 C11.2012863,15.0682449 11.1406326,14.7567749 11.1406326,14.2642975 C11.1406326,12.547493 11.8368149,11.7160797 12.5154495,11.1310959 C12.6434326,11.0225678 12.7904892,10.9096527 12.9463196,10.790062 C13.7037277,10.2085113 14.6467209,9.48467256 14.6467209,8.30841064 C14.6467209,7.15446475 13.7069702,6.40888213 12.2526169,6.40888213 C10.7290268,6.40888213 10.2464676,7.12051392 9.89398955,7.64007568 C9.65309141,7.99541475 9.54322812,8.1396103 9.2411041,8.1396103 C8.84838105,8.1396103 8.26396943,7.89718628 8.26396943,7.22961426 C8.26396943,6.79607393 8.51116182,6.1285019 9.205246,5.55515288 C9.73854062,5.11474609 10.7116699,4.5894623 12.3205185,4.5894623 C14.9202347,4.5894623 16.7356491,5.96160889 16.7356491,7.92617798 C16.7356491,8.83255005 16.343689,9.74121094 15.5704498,10.6271744 C15.4354096,10.7816696 15.4514312,11.0160828 15.6057358,11.1509323 L15.6057358,11.1509323 Z" id="Path"></path>
                </g>
            </g>
        </g>
    </g>
</svg>