<?xml version="1.0" encoding="UTF-8"?>
<svg width="18px" height="22px" viewBox="0 0 18 22" version="1.1" xmlns="http://www.w3.org/2000/svg" xmlns:xlink="http://www.w3.org/1999/xlink">
    <!-- Generator: Sketch 53.2 (72643) - https://sketchapp.com -->
    <title>icon-notification</title>
    <desc>Created with Sketch.</desc>
    <g id="Page-1" stroke="none" stroke-width="1" fill="none" fill-rule="evenodd">
        <g id="Product" transform="translate(-327.000000, -54.000000)" fill="#AA1F24" fill-rule="nonzero">
            <g id="Nav-Bar">
                <g id="Notif" transform="translate(327.000000, 54.000000)">
                    <path d="M17.6283826,17.5077461 C17.5615153,17.4657656 17.0582558,17.1248086 16.5543298,16.0933438 C15.6288957,14.1991953 15.4346474,11.5309219 15.4346474,9.62607422 C15.4346474,9.61778125 15.4344697,9.60957422 15.4341587,9.60132422 C15.424073,7.08382813 13.8653326,4.91364844 11.6347649,3.93993359 L11.6347649,2.45076563 C11.6347649,1.09939844 10.499843,0 9.10482735,0 L8.89516181,0 C7.50014619,0 6.36522426,1.09939844 6.36522426,2.45076563 L6.36522426,3.93984766 C4.12719232,4.91669922 2.56534176,7.09796484 2.56534176,9.62607422 C2.56534176,11.5309219 2.37109345,14.1991523 1.44565934,16.0933438 C0.941777815,17.1247656 0.438518311,17.4657227 0.371606612,17.5077461 C0.0898310518,17.6338594 -0.0491018049,17.9251875 0.0157216802,18.2204258 C0.0811671864,18.5185859 0.369340678,18.7241484 0.684038927,18.7241484 L5.56899281,18.7241484 C5.59627288,20.5348945 7.12440102,22 9.0000168,22 C10.8756326,22 12.4037607,20.5348945 12.4310408,18.7241484 L17.3159947,18.7241484 C17.6306485,18.7241484 17.9188664,18.5185859 17.9843119,18.2204258 C18.0490465,17.9251875 17.9101581,17.6338164 17.6283826,17.5077461 Z M7.69817106,2.45076563 C7.69817106,1.81134766 8.23515299,1.29116797 8.89520624,1.29116797 L9.10487178,1.29116797 C9.76492504,1.29116797 10.301907,1.81134766 10.301907,2.45076563 L10.301907,3.52141797 C9.88124298,3.43732813 9.44578378,3.39307031 8.99983908,3.39307031 C8.55402767,3.39307031 8.11870175,3.43728516 7.69821549,3.52128906 L7.69821549,2.45076563 L7.69817106,2.45076563 Z M9.0000168,20.708832 C7.85936338,20.708832 6.9289531,19.8229453 6.90189518,18.7241914 L11.098094,18.7241914 C11.0710805,19.8229023 10.1406702,20.708832 9.0000168,20.708832 L9.0000168,20.708832 Z M11.6835936,17.4329375 C11.6834603,17.4329375 2.20288117,17.4329375 2.20288117,17.4329375 C2.31817723,17.2591719 2.43551707,17.062418 2.55214603,16.8400547 C3.44536833,15.1366445 3.89828856,12.7095117 3.89828856,9.62607422 C3.89828856,6.901125 6.18683749,4.68423828 8.99979465,4.68423828 C11.8127518,4.68423828 14.1013007,6.901125 14.1013007,9.62822266 C14.1013007,9.63617188 14.101434,9.64407813 14.101745,9.65198438 C14.1042776,12.7230469 14.5571533,15.141457 15.4478876,16.8400547 C15.5645165,17.0624609 15.6819008,17.2591719 15.7971524,17.4329375 L11.6835936,17.4329375 Z" id="icon-notification"></path>
                </g>
            </g>
        </g>
    </g>
</svg>