<?xml version="1.0" encoding="UTF-8"?>
<svg width="22px" height="22px" viewBox="0 0 22 22" version="1.1" xmlns="http://www.w3.org/2000/svg" xmlns:xlink="http://www.w3.org/1999/xlink">
    <!-- Generator: Sketch 53.2 (72643) - https://sketchapp.com -->
    <title>icon-home-outline</title>
    <desc>Created with Sketch.</desc>
    <g id="Page-1" stroke="none" stroke-width="1" fill="none" fill-rule="evenodd">
        <g id="Home" transform="translate(-36.000000, -736.000000)" fill="#AA1F24" fill-rule="nonzero">
            <g id="Tab-Bar" transform="translate(0.000000, 722.000000)">
                <g id="Home" transform="translate(23.000000, 14.000000)">
                    <g id="Icon" transform="translate(13.000000, 0.000000)">
                        <g id="icon-home-outline">
                            <path d="M21.4091828,9.56893919 C21.4085114,9.56843568 21.4080078,9.56776429 21.4075042,9.56726074 L12.4323392,0.593338023 C12.049778,0.210647594 11.5411511,0 11.0001266,0 C10.4591022,0 9.95047531,0.210647594 9.56774623,0.593338023 L0.597281432,9.56272887 C0.594259865,9.56575013 0.591070445,9.56893919 0.588216774,9.57196045 C-0.197385041,10.3620148 -0.196042132,11.6438599 0.592077648,12.4319 C0.952145136,12.792099 1.42753495,13.0005646 1.93599389,13.0225525 C1.95680898,13.0245667 1.97762408,13.0255737 1.99860702,13.0255737 L2.35615658,13.0255737 L2.35615658,19.6296692 C2.35615658,20.9366913 3.41974058,22 4.72689472,22 L8.23826623,22 C8.59430503,22 8.88286259,21.7113037 8.88286259,21.3554688 L8.88286259,16.1777344 C8.88286259,15.5813751 9.36815637,15.0962982 9.96457586,15.0962982 L12.0356774,15.0962982 C12.6320969,15.0962982 13.1172228,15.5813751 13.1172228,16.1777344 L13.1172228,21.3554688 C13.1172228,21.7113037 13.4057804,22 13.7618192,22 L17.2731907,22 C18.5805127,22 19.6439288,20.9366913 19.6439288,19.6296692 L19.6439288,13.0255737 L19.9756274,13.0255737 C20.516484,13.0255737 21.0251108,12.8149261 21.4080078,12.4320679 C22.1969669,11.6428528 22.1973026,10.3586578 21.4091828,9.56893919 L21.4091828,9.56893919 Z M20.4963404,11.5206604 C20.3571814,11.6598053 20.1721957,11.7365112 19.9756274,11.7365112 L18.9993325,11.7365112 C18.6432937,11.7365112 18.3547361,12.0250397 18.3547361,12.3810425 L18.3547361,19.6296692 C18.3547361,20.2258606 17.8696102,20.7109375 17.2731907,20.7109375 L14.4064156,20.7109375 L14.4064156,16.1777344 C14.4064156,14.8707123 13.3429994,13.8072357 12.0356774,13.8072357 L9.96457586,13.8072357 C8.65725387,13.8072357 7.59366987,14.8707123 7.59366987,16.1777344 L7.59366987,20.7109375 L4.72689472,20.7109375 C4.13064309,20.7109375 3.64534931,20.2258606 3.64534931,19.6296692 L3.64534931,12.3810425 C3.64534931,12.0250397 3.35679171,11.7365112 3.00075295,11.7365112 L2.0412444,11.7365112 C2.03117259,11.7358398 2.02126862,11.7353363 2.01102895,11.7351685 C1.81899295,11.7318115 1.63887528,11.6556091 1.50391292,11.5204925 C1.21686608,11.2334747 1.21686608,10.7663574 1.50391292,10.4791717 C1.50408077,10.4791717 1.50408077,10.4790039 1.50424862,10.4788361 L1.50475222,10.4783325 L10.4795815,1.50474547 C10.6185726,1.36560059 10.8033905,1.2890625 11.0001266,1.2890625 C11.1966949,1.2890625 11.3815128,1.36560059 11.5206718,1.50474547 L20.4934867,10.4764862 C20.4948296,10.477829 20.4963404,10.4791717 20.4976833,10.4805145 C20.7832193,10.7680359 20.7827157,11.2341461 20.4963404,11.5206604 Z" id="Shape"></path>
                        </g>
                    </g>
                </g>
            </g>
        </g>
    </g>
</svg>