<?xml version="1.0" encoding="UTF-8"?>
<svg width="22px" height="22px" viewBox="0 0 22 22" version="1.1" xmlns="http://www.w3.org/2000/svg" xmlns:xlink="http://www.w3.org/1999/xlink">
    <!-- Generator: Sketch 53.2 (72643) - https://sketchapp.com -->
    <title>icon-home-fill</title>
    <desc>Created with Sketch.</desc>
    <g id="Page-1" stroke="none" stroke-width="1" fill="none" fill-rule="evenodd">
        <g id="Home" transform="translate(-36.000000, -736.000000)" fill="#AA1F24">
            <g id="Tab-Bar" transform="translate(0.000000, 722.000000)">
                <g id="Home" transform="translate(23.000000, 14.000000)">
                    <g id="Icon" transform="translate(13.000000, 0.000000)">
                        <g id="icon-home-fill">
                            <path d="M21.4090354,9.56893919 C21.4085318,9.56843568 21.4080282,9.56793213 21.4075246,9.56742858 L12.4323511,0.593505859 C12.0497895,0.21081543 11.5411622,0 11.0001371,0 C10.4591121,0 9.95048482,0.210647594 9.56775536,0.593338023 L0.597282002,9.56272887 C0.594260433,9.56575013 0.591238863,9.56893919 0.588217336,9.57196045 C-0.197385229,10.3620148 -0.196042319,11.6438599 0.592078214,12.4319 C0.952146046,12.792099 1.42770417,13.0007324 1.93616364,13.0225525 C1.95681085,13.0245667 1.97762596,13.0255737 1.99860893,13.0255737 L2.35632669,13.0255737 L2.35632669,19.629837 C2.35632669,20.9366913 3.41974385,22 4.72706709,22 L8.238442,22 C8.59431324,22 8.88303897,21.7114715 8.88303897,21.3554688 L8.88303897,16.1777344 C8.88303897,15.5813751 9.36816532,15.0962982 9.96458538,15.0962982 L12.0356889,15.0962982 C12.632109,15.0962982 13.1172354,15.5813751 13.1172354,16.1777344 L13.1172354,21.3554688 C13.1172354,21.7114715 13.4057932,22 13.7618323,22 L17.2732072,22 C18.5805304,22 19.6439476,20.9366913 19.6439476,19.629837 L19.6439476,13.0255737 L19.9756465,13.0255737 C20.5165036,13.0255737 21.0251309,12.8149261 21.4080282,12.4322357 C22.1969881,11.6428528 22.1973238,10.3588257 21.4090354,9.56893919 L21.4090354,9.56893919 Z" id="Path"></path>
                        </g>
                    </g>
                </g>
            </g>
        </g>
    </g>
</svg>