<?xml version="1.0" encoding="UTF-8"?>
<svg width="22px" height="19px" viewBox="0 0 22 19" version="1.1" xmlns="http://www.w3.org/2000/svg" xmlns:xlink="http://www.w3.org/1999/xlink">
    <!-- Generator: Sketch 53.2 (72643) - https://sketchapp.com -->
    <title>icon-cart-outline</title>
    <desc>Created with Sketch.</desc>
    <g id="Page-1" stroke="none" stroke-width="1" fill="none" fill-rule="evenodd">
        <g id="Home" transform="translate(-223.000000, -739.000000)" fill="#AA1F24" fill-rule="nonzero">
            <g id="Tab-Bar" transform="translate(0.000000, 722.000000)">
                <g id="Cart" transform="translate(210.000000, 17.000000)">
                    <g id="Icon" transform="translate(13.000000, 0.000000)">
                        <g id="icon-cart-outline">
                            <path d="M7.08817718,12.5001627 L7.08918424,12.5001627 C7.09002347,12.5001627 7.09086273,12.5 7.09170196,12.5 L18.7773752,12.5 C19.0650649,12.5 19.3180103,12.3149414 19.3970662,12.0467122 L21.9751955,3.29671225 C22.0307529,3.10807292 21.9918124,2.90527342 21.8701233,2.74869792 C21.7482664,2.59212242 21.5577601,2.5 21.3555045,2.5 L5.6017245,2.5 L5.14098456,0.489420583 C5.07535643,0.2034505 4.81385084,0 4.51172631,0 L0.64453233,0 C0.288528937,0 0,0.279785167 0,0.625 C0,0.970214833 0.288528937,1.25 0.64453233,1.25 L3.99475767,1.25 C4.07633131,1.60628254 6.19959535,10.871582 6.32178794,11.4046224 C5.6368045,11.6933594 5.15625864,12.3556315 5.15625864,13.125 C5.15625864,14.1588542 6.02369173,15 7.08985563,15 L18.7773752,15 C19.1333786,15 19.4219075,14.7202148 19.4219075,14.375 C19.4219075,14.0297852 19.1333786,13.75 18.7773752,13.75 L7.08985563,13.75 C6.73452362,13.75 6.4453233,13.4695638 6.4453233,13.125 C6.4453233,12.7809245 6.73351652,12.5009766 7.08817718,12.5001627 L7.08817718,12.5001627 Z M20.5009956,3.75 L18.2911226,11.25 L7.60682427,11.25 L5.88807139,3.75 L20.5009956,3.75 Z" id="Shape"></path>
                            <path d="M6,17 C6,18.1027778 6.89722222,19 8,19 C9.10277778,19 10,18.1027778 10,17 C10,15.8972222 9.10277778,15 8,15 C6.89722222,15 6,15.8972222 6,17 Z M8,16.3333333 C8.36753471,16.3333333 8.66666667,16.6324653 8.66666667,17 C8.66666667,17.3675347 8.36753471,17.6666667 8,17.6666667 C7.63246529,17.6666667 7.33333333,17.3675347 7.33333333,17 C7.33333333,16.6324653 7.63246529,16.3333333 8,16.3333333 Z" id="Shape"></path>
                            <path d="M16,17 C16,18.1027778 16.8972222,19 18,19 C19.1027778,19 20,18.1027778 20,17 C20,15.8972222 19.1027778,15 18,15 C16.8972222,15 16,15.8972222 16,17 Z M18,16.3333333 C18.3675347,16.3333333 18.6666667,16.6324653 18.6666667,17 C18.6666667,17.3675347 18.3675347,17.6666667 18,17.6666667 C17.6324653,17.6666667 17.3333333,17.3675347 17.3333333,17 C17.3333333,16.6324653 17.6324653,16.3333333 18,16.3333333 Z" id="Shape"></path>
                        </g>
                    </g>
                </g>
            </g>
        </g>
    </g>
</svg>