<?xml version="1.0" encoding="UTF-8"?>
<svg width="23px" height="25px" viewBox="0 0 23 25" version="1.1" xmlns="http://www.w3.org/2000/svg" xmlns:xlink="http://www.w3.org/1999/xlink">
    <!-- Generator: Sketch 53.2 (72643) - https://sketchapp.com -->
    <title>icon-logout</title>
    <desc>Created with Sketch.</desc>
    <g id="Page-1" stroke="none" stroke-width="1" fill="none" fill-rule="evenodd">
        <g id="Profile" transform="translate(-30.000000, -678.000000)" fill="#AA1F24">
            <g id="Logout" transform="translate(0.000000, 661.000000)">
                <g id="icon-logout" transform="translate(30.000000, 17.000000)">
                    <path d="M18.9023869,6.12600503 C18.5344221,5.7580402 17.9379397,5.7580402 17.5698492,6.12600503 C17.2018844,6.49396985 17.2018844,7.09045226 17.5698492,7.45841709 C19.2988693,9.18743719 20.251005,11.4863065 20.251005,13.9315327 C20.251005,16.3766332 19.2988693,18.6753769 17.5698492,20.4042714 C15.7855528,22.1886935 13.4420854,23.0807789 11.0979899,23.0805276 C8.75389447,23.080402 6.40929648,22.1880653 4.62474874,20.4035176 C1.05628141,16.8350503 1.05665829,11.0285176 4.62537688,7.45979899 C4.99334171,7.09183417 4.99334171,6.49522613 4.62537688,6.12738693 C4.25741206,5.75942211 3.66092965,5.75942211 3.2928392,6.12738693 C-1.01055276,10.4307789 -1.01092965,17.4329146 3.29221106,21.7360553 C5.44447236,23.8883166 8.27110553,24.9643216 11.0981156,24.964196 C13.9243719,24.9640704 16.751005,23.8883166 18.9025126,21.736809 C20.9873116,19.6521357 22.1354271,16.8801508 22.1354271,13.9316583 C22.1355528,10.9830402 20.9873116,8.21092965 18.9023869,6.12600503 Z" id="Path"></path>
                    <path d="M11.0969849,12.2065327 C11.6174623,12.2065327 12.039196,11.7846734 12.039196,11.2643216 L12.039196,0.942211055 C12.039196,0.421859296 11.6174623,0 11.0969849,0 C10.5765075,0 10.1547739,0.421859296 10.1547739,0.942211055 L10.1547739,11.2643216 C10.1547739,11.784799 10.5765075,12.2065327 11.0969849,12.2065327 Z" id="Path"></path>
                </g>
            </g>
        </g>
    </g>
</svg>