<?xml version="1.0" encoding="UTF-8"?>
<svg width="22px" height="19px" viewBox="0 0 22 19" version="1.1" xmlns="http://www.w3.org/2000/svg" xmlns:xlink="http://www.w3.org/1999/xlink">
    <!-- Generator: Sketch 53.2 (72643) - https://sketchapp.com -->
    <title>icon-cart-fill</title>
    <desc>Created with Sketch.</desc>
    <g id="Page-1" stroke="none" stroke-width="1" fill="none" fill-rule="evenodd">
        <g id="Home" transform="translate(-223.000000, -739.000000)" fill="#AA1F24">
            <g id="Tab-Bar" transform="translate(0.000000, 722.000000)">
                <g id="Cart" transform="translate(210.000000, 17.000000)">
                    <g id="Icon" transform="translate(13.000000, 0.000000)">
                        <g id="icon-cart-fill">
                            <path d="M7.1327925,12.5000271 L18.7774589,12.5000271 C19.0658187,12.5000271 19.3187629,12.3151333 19.3968115,12.0465815 L21.9750971,3.29651373 C22.0304863,3.10787645 21.9925531,2.90524189 21.8705289,2.74850535 C21.7483368,2.59225704 21.5583349,2.49997288 21.3555767,2.49997288 L5.64483586,2.49997288 L5.18409803,0.489578021 C5.11863799,0.203285544 4.8567979,0 4.55467473,0 L0.644529442,0 C0.288359808,0 0,0.279619383 0,0.624993219 C0,0.970529845 0.288359808,1.24998644 0.644529442,1.24998644 L4.03737273,1.24998644 L6.36489608,11.4061262 C5.68008355,11.6948601 5.19920417,12.355823 5.19920417,13.1250203 C5.19920417,14.1588633 6.06663338,15 7.1327925,15 L18.7774589,15 C19.1337964,15 19.4219884,14.7205434 19.4219884,14.3750068 C19.4219884,14.0296329 19.1337964,13.7500136 18.7774589,13.7500136 L7.1327925,13.7500136 C6.77779775,13.7500136 6.48826305,13.4699059 6.48826305,13.1250203 C6.48826305,12.7801348 6.77779775,12.5000271 7.1327925,12.5000271 Z" id="Path"></path>
                            <path d="M6,17 C6,18.1029514 6.89718328,19 8.0000868,19 C9.10281672,19 10,18.1029514 10,17 C10,15.8972222 9.10281672,15 8.0000868,15 C6.89718328,15 6,15.8972222 6,17 Z" id="Path"></path>
                            <path d="M16,17 C16,18.1029514 16.8972222,19 18,19 C19.1029514,19 20,18.1029514 20,17 C20,15.8972222 19.1029514,15 18,15 C16.8972222,15 16,15.8972222 16,17 Z" id="Path"></path>
                        </g>
                    </g>
                </g>
            </g>
        </g>
    </g>
</svg>