<?xml version="1.0" encoding="UTF-8"?>
<svg width="13px" height="23px" viewBox="0 0 13 23" version="1.1" xmlns="http://www.w3.org/2000/svg" xmlns:xlink="http://www.w3.org/1999/xlink">
    <!-- Generator: Sketch 53.2 (72643) - https://sketchapp.com -->
    <title>icon-product-outline</title>
    <desc>Created with Sketch.</desc>
    <g id="Page-1" stroke="none" stroke-width="1" fill="none" fill-rule="evenodd">
        <g id="Home" transform="translate(-135.000000, -736.000000)" fill="#AA1F24">
            <g id="Tab-Bar" transform="translate(0.000000, 722.000000)">
                <g id="Product" transform="translate(117.000000, 14.000000)">
                    <g id="ico" transform="translate(18.000000, 0.000000)">
                        <g id="icon-product-outline">
                            <path d="M5.7435,7.91389474 C5.580375,7.86047368 5.415375,7.81589474 5.25,7.77352632 L5.25,5.68421053 C5.25,5.48047368 5.082375,5.31578947 4.875,5.31578947 L4.875,4.73147368 L5.140125,4.471 C5.28675,4.32694737 5.28675,4.09410526 5.140125,3.95005263 L5.03025,3.84210526 L5.140125,3.73415789 C5.28675,3.59010526 5.28675,3.35726316 5.140125,3.21321053 L4.875,2.95273684 L4.875,2.36842105 C4.875,2.16468421 4.707375,2 4.5,2 L1.5,2 C1.292625,2 1.125,2.16468421 1.125,2.36842105 L1.125,2.95273684 L0.859875,3.21321053 C0.71325,3.35726316 0.71325,3.59010526 0.859875,3.73415789 L0.96975,3.84210526 L0.859875,3.95005263 C0.71325,4.09410526 0.71325,4.32694737 0.859875,4.471 L1.125,4.73147368 L1.125,5.31578947 C0.917625,5.31578947 0.75,5.48047368 0.75,5.68421053 L0.75,7.77352632 C0.584625,7.81589474 0.41925,7.86047368 0.2565,7.91389474 C0.103125,7.964 0,8.10436842 0,8.26315789 L0,22.6315789 C0,22.8353158 0.167625,23 0.375,23 L5.625,23 C5.832375,23 6,22.8353158 6,22.6315789 L6,8.26315789 C6,8.10436842 5.896875,7.964 5.7435,7.91389474 Z M1.765125,4.31847368 L1.65525,4.21052632 L1.765125,4.10257895 C1.91175,3.95852632 1.91175,3.72568421 1.765125,3.58163158 L1.65525,3.47368421 L1.765125,3.36573684 C1.835625,3.29684211 1.875,3.20326316 1.875,3.10526316 L1.875,2.73684211 L4.125,2.73684211 L4.125,3.10526316 C4.125,3.20326316 4.164375,3.29684211 4.234875,3.36573684 L4.34475,3.47368421 L4.234875,3.58163158 C4.08825,3.72568421 4.08825,3.95852632 4.234875,4.10257895 L4.34475,4.21052632 L4.234875,4.31847368 C4.164375,4.38736842 4.125,4.48094737 4.125,4.57894737 L4.125,5.31578947 L1.875,5.31578947 L1.875,4.57894737 C1.875,4.48094737 1.835625,4.38736842 1.765125,4.31847368 Z M1.5,6.05263158 L4.5,6.05263158 L4.5,7.61842105 C4.1085,7.558 3.7125,7.52631579 3.31425,7.52631579 L2.68575,7.52631579 C2.2875,7.52631579 1.8915,7.558 1.5,7.61842105 L1.5,6.05263158 Z M4.4865,8.36521053 L4.14525,20.4313684 C4.139625,20.6321579 3.975375,20.7894737 3.770625,20.7894737 L2.22975,20.7894737 C2.025,20.7894737 1.86075,20.6321579 1.855125,20.4313684 L1.513875,8.36521053 C1.900125,8.3 2.29125,8.26315789 2.68575,8.26315789 L3.31425,8.26315789 C3.70875,8.26315789 4.099875,8.3 4.4865,8.36521053 Z M5.25,22.2631579 L0.75,22.2631579 L0.75,8.53394737 C0.756,8.53210526 0.761625,8.53136842 0.767625,8.52952632 L1.10475,20.4516316 C1.121625,21.0543684 1.615875,21.5263158 2.229375,21.5263158 L3.77025,21.5263158 C4.384125,21.5263158 4.878,21.0543684 4.894875,20.4516316 L5.232,8.52952632 C5.238,8.53136842 5.244,8.53210526 5.249625,8.53394737 L5.249625,22.2631579 L5.25,22.2631579 Z" id="Shape" fill-rule="nonzero"></path>
                            <path d="M12.625,12.2419355 L11.125,12.2419355 L11.125,4.34848387 C11.348125,4.21975806 11.5,3.98308065 11.5,3.70967742 L11.5,0.927419355 C11.5,0.415854839 11.079625,0 10.5625,0 C10.361125,0 10.161625,0.0656612903 10.000375,0.185112903 C10,0.185112903 10,0.185483871 10,0.185483871 L8.65,1.18709677 C8.5555,1.25720968 8.5,1.3673871 8.5,1.48387097 L8.5,3.70967742 C8.5,3.98308065 8.651875,4.21975806 8.875,4.34848387 L8.875,12.2419355 L7.375,12.2419355 C7.167625,12.2419355 7,12.4077581 7,12.6129032 L7,21.8870968 C7,22.5006774 7.50475,23 8.125,23 L11.875,23 C12.49525,23 13,22.5006774 13,21.8870968 L13,12.6129032 C13,12.4077581 12.832375,12.2419355 12.625,12.2419355 Z M9.25,1.66935484 L10.44925,0.779403226 C10.565125,0.693709677 10.75,0.78533871 10.75,0.927419355 L10.75,3.70967742 L9.25,3.70967742 L9.25,1.66935484 Z M9.625,4.4516129 L10.375,4.4516129 L10.375,12.2419355 L9.625,12.2419355 L9.625,4.4516129 Z M12.25,21.8870968 C12.25,22.091871 12.082,22.2580645 11.875,22.2580645 L8.125,22.2580645 C7.918,22.2580645 7.75,22.091871 7.75,21.8870968 L7.75,12.983871 L12.25,12.983871 L12.25,21.8870968 Z" id="Shape" fill-rule="nonzero"></path>
                            <polygon id="Path" points="10 14 11 14 11 15 10 15"></polygon>
                            <polygon id="Path" points="10 15 11 15 11 21 10 21"></polygon>
                        </g>
                    </g>
                </g>
            </g>
        </g>
    </g>
</svg>